<?xml version="1.0" encoding="UTF-8"?>
<svg id="Calque_2" data-name="Calque 2" xmlns="http://www.w3.org/2000/svg" viewBox="0 0 185.31 156.4">
  <defs>
    <style>
      .cls-1 {
        fill: #7c8718;
      }

      .cls-1, .cls-2, .cls-3, .cls-4, .cls-5 {
        stroke-width: 0px;
      }

      .cls-6 {
        fill: none;
      }

      .cls-6, .cls-7, .cls-8, .cls-9, .cls-10, .cls-11, .cls-12, .cls-13, .cls-14, .cls-15 {
        stroke-miterlimit: 10;
      }

      .cls-6, .cls-7, .cls-8, .cls-9, .cls-10, .cls-12, .cls-13, .cls-14, .cls-15 {
        stroke: #0d3125;
      }

      .cls-6, .cls-14 {
        stroke-width: 3.63px;
      }

      .cls-7 {
        stroke-width: 3.91px;
      }

      .cls-7, .cls-8, .cls-2, .cls-9, .cls-10, .cls-12, .cls-13, .cls-15 {
        fill: #0d3125;
      }

      .cls-8 {
        stroke-width: 3.95px;
      }

      .cls-3 {
        fill: #f15a24;
      }

      .cls-9 {
        stroke-width: 3.66px;
      }

      .cls-10 {
        stroke-width: 4.83px;
      }

      .cls-11 {
        fill: #3a94b5;
        stroke: #3a94b5;
        stroke-width: 3.74px;
      }

      .cls-12 {
        stroke-width: 2.14px;
      }

      .cls-13 {
        stroke-width: 4.33px;
      }

      .cls-14 {
        fill: #3a91af;
      }

      .cls-4 {
        fill: #b3b764;
      }

      .cls-5 {
        fill: #fff;
      }

      .cls-15 {
        stroke-width: 2.67px;
      }
    </style>
  </defs>
  <g id="Calque_1-2" data-name="Calque 1">
    <g>
      <path class="cls-14" d="M156.17,123.21c8.7-12.51,13.8-27.7,13.8-44.08C169.97,36.43,135.35,1.82,92.66,1.82S15.34,36.43,15.34,79.13c0,16.39,5.1,31.58,13.8,44.08h127.03Z"/>
      <g>
        <polygon class="cls-1" points="38.66 66.53 68.54 66.22 93.49 26.51 121.38 66.22 153.17 66.53 93.2 7.21 38.66 66.53"/>
        <path class="cls-13" d="M153.02,67.86l-32.65-.32-27.72-39.46-24.8,39.46-30.7.32L92.33,7.83l.22.22,60.47,59.81ZM92.35,8.66l-30.91,33.62-22.98,25,29.05-.31,25.11-39.95,28.06,39.95,30.93.31L92.35,8.66Z"/>
        <line class="cls-10" x1="62.39" y1="42.31" x2="66.03" y2="65.79"/>
        <line class="cls-10" x1="135.36" y1="50.1" x2="119.23" y2="67.55"/>
        <line class="cls-7" x1="114.18" y1="30.25" x2="108.89" y2="50.45"/>
        <line class="cls-9" x1="84.99" y1="40.38" x2="70.98" y2="28.47"/>
        <line class="cls-8" x1="98.53" y1="35.15" x2="99.53" y2="13.86"/>
      </g>
      <g>
        <polygon class="cls-4" points="37.41 83.41 67.29 83.09 92.24 43.39 120.13 83.09 151.92 83.41 91.95 24.09 37.41 83.41"/>
        <path class="cls-13" d="M153.22,86.19l-32.65-.32-27.72-39.46-24.8,39.46-30.7.32,55.18-60.03.22.22,60.47,59.81ZM92.55,26.99l-30.91,33.62-22.98,25,29.05-.31,25.11-39.95,28.06,39.95,30.93.31-59.26-58.61Z"/>
        <line class="cls-10" x1="62.6" y1="60.64" x2="66.23" y2="84.12"/>
        <line class="cls-10" x1="135.56" y1="68.42" x2="119.44" y2="85.87"/>
        <line class="cls-7" x1="114.38" y1="48.57" x2="109.09" y2="68.78"/>
        <line class="cls-9" x1="85.19" y1="58.7" x2="71.18" y2="46.8"/>
        <line class="cls-8" x1="98.73" y1="53.47" x2="99.73" y2="32.18"/>
      </g>
      <rect class="cls-2" x="21.83" y="122.53" width="141.66" height="4.19"/>
      <polygon class="cls-5" points="137.23 124.37 51.56 124.37 51.56 88.89 69.97 88.58 92.66 51.24 118.01 88.58 137.23 88.89 137.23 124.37"/>
      <polygon class="cls-11" points="70.02 91.26 75.26 91.26 92.54 58.7 112.49 91.26 117.72 91.26 92.54 54.19 70.02 91.26"/>
      <path class="cls-6" d="M137.44,124.64H51.24v-36.01l18.53-.31,22.82-37.56,25.51,37.56,19.34.31v36.01ZM51.77,124.1h85.14v-34.95l-19.09-.31-.08-.11-25.12-36.99-22.55,37.11h-.15s-18.15.31-18.15.31v34.95Z"/>
      <path class="cls-3" d="M93.47,94.88h.37c6.24,0,11.31,5.07,11.31,11.31v17.91h-22.58v-18.32c0-6.02,4.89-10.9,10.9-10.9Z"/>
      <path class="cls-15" d="M105.47,124.37h-23.22v-18.72c0-6.16,5.01-11.17,11.17-11.17h.47c6.38,0,11.58,5.19,11.58,11.58v18.31ZM82.78,123.84h22.15v-17.78c0-6.09-4.95-11.04-11.04-11.04h-.47c-5.86,0-10.64,4.77-10.64,10.64v18.19Z"/>
      <circle class="cls-2" cx="88.38" cy="108.08" r="2.12"/>
      <path class="cls-2" d="M88.38,110.48c-1.32,0-2.4-1.08-2.4-2.4s1.08-2.4,2.4-2.4,2.4,1.08,2.4,2.4-1.08,2.4-2.4,2.4ZM88.38,106.25c-1.01,0-1.83.82-1.83,1.83s.82,1.83,1.83,1.83,1.83-.82,1.83-1.83-.82-1.83-1.83-1.83Z"/>
      <circle class="cls-2" cx="99.38" cy="108.08" r="2.12"/>
      <path class="cls-2" d="M99.38,110.48c-1.32,0-2.4-1.08-2.4-2.4s1.08-2.4,2.4-2.4,2.4,1.08,2.4,2.4-1.08,2.4-2.4,2.4ZM99.38,106.25c-1.01,0-1.83.82-1.83,1.83s.82,1.83,1.83,1.83,1.83-.82,1.83-1.83-.82-1.83-1.83-1.83Z"/>
      <circle class="cls-2" cx="88.38" cy="118.24" r="2.12"/>
      <path class="cls-2" d="M88.38,120.63c-1.32,0-2.4-1.08-2.4-2.4s1.08-2.4,2.4-2.4,2.4,1.08,2.4,2.4-1.08,2.4-2.4,2.4ZM88.38,116.4c-1.01,0-1.83.82-1.83,1.83s.82,1.83,1.83,1.83,1.83-.82,1.83-1.83-.82-1.83-1.83-1.83Z"/>
      <circle class="cls-2" cx="99.38" cy="118.24" r="2.12"/>
      <path class="cls-2" d="M99.38,120.63c-1.32,0-2.4-1.08-2.4-2.4s1.08-2.4,2.4-2.4,2.4,1.08,2.4,2.4-1.08,2.4-2.4,2.4ZM99.38,116.4c-1.01,0-1.83.82-1.83,1.83s.82,1.83,1.83,1.83,1.83-.82,1.83-1.83-.82-1.83-1.83-1.83Z"/>
      <rect class="cls-12" x="93.55" y="104.09" width=".53" height="18.83" transform="translate(-1.28 1.07) rotate(-.65)"/>
      <polygon class="cls-3" points="101.33 82.63 96.35 86.16 93.47 90.48 90.65 85.95 85.62 82.63 90.44 79.2 93.47 74.78 96.56 79.2 101.33 82.63"/>
      <g>
        <path class="cls-5" d="M11.72,147.21h-6.38c-.84,2.06-.75,4.96-.75,8.8H0v-3.73c0-4.01,1.03-7.99,2.92-11.5H.08v-4.7h16.23v19.93h-4.59v-8.8ZM8.24,140.78c-.11.14-.53.81-.97,1.73h4.45v-1.73h-3.48Z"/>
        <path class="cls-5" d="M29.54,156.01h-4.59v-15.23h-5.93v-4.7h16.23v4.7h-5.71v15.23Z"/>
        <path class="cls-5" d="M37.3,151.61c3.03-1.34,5.43-2.98,7.21-5.07-2.98-2.17-6.07-5.46-7.54-10.47h4.82c1.09,2.73,3.2,4.98,5.29,6.57.92-1.78,1.78-3.98,1.89-6.57h4.54c-.25,8.57-7.85,18.1-16.2,20.21v-4.68Z"/>
        <path class="cls-5" d="M59.88,156.01h-4.59v-19.93h15.87c-1.84,7.63-5.73,12.69-11.27,15.84v4.09ZM59.85,146.32c1.92-1.45,3.62-3.42,4.82-5.54h-4.79l-.03,5.54Z"/>
        <path class="cls-5" d="M73.07,136.08h4.7v19.93h-4.7v-19.93Z"/>
        <path class="cls-5" d="M95.79,156.01h-4.73c-1-5.82-3.31-9.72-7.07-12.86v12.86h-4.57v-20.55c3.79,1.28,6.26,2.78,8.3,4.65l7.96-4.79v5.35l-4.76,2.98c2.42,3.31,4.09,7.24,4.87,12.36Z"/>
        <path class="cls-5" d="M110.07,147.21h-7.04v8.8h-4.57v-19.93h4.57v6.43h7.04v-6.43h4.59v19.93h-4.59v-8.8Z"/>
        <path class="cls-5" d="M117.31,143.04c0-3.84,3.01-6.96,6.65-6.96s6.63,3.12,6.63,6.96-2.98,6.99-6.63,6.99-6.65-3.15-6.65-6.99ZM117.78,151.28h12.33v4.73h-12.33v-4.73ZM121.76,143.04c0,1.25,1,2.28,2.2,2.28s2.14-1.03,2.14-2.28-.95-2.25-2.14-2.25-2.2,1-2.2,2.25Z"/>
        <path class="cls-5" d="M132.42,138.17v-2.09h4.62v2.12c0,4.26,1.45,8.18,3.84,11.64,2.39-3.45,3.84-7.38,3.84-11.64v-2.12h4.62v2.09c0,6.15-2.84,13.7-8.46,18.07-5.62-4.37-8.46-11.91-8.46-18.07Z"/>
        <path class="cls-5" d="M156.56,147.21c-2.64,0-5.32-2.25-5.32-5.62,0-3.65,2.64-5.51,5.32-5.51h11v4.7h-10.72c-.56,0-1,.2-1,.81s.36.92,1,.92h8.52c1,0,1.89.39,1.89,1.67,0,.92-.28,1.78-.56,2.39-2.64,5.85-9.38,8.94-15.39,9.55v-4.73c3.54-.56,7.04-1.67,9.72-4.18h-4.45Z"/>
        <path class="cls-5" d="M185.31,136.08v4.7h-10.75c.25.61.5,1.17.78,1.73h9.77v4.7h-6.4c1.7,1.75,3.87,3.17,6.6,4.4v4.79c-9.27-3.17-15.34-10.58-16.37-20.32h16.37Z"/>
      </g>
    </g>
  </g>
</svg>