<?xml version="1.0" encoding="UTF-8"?>
<svg id="Calque_2" data-name="Calque 2" xmlns="http://www.w3.org/2000/svg" viewBox="0 0 1220 608.64">
  <defs>
    <style>
      .cls-1 {
        stroke-width: 11.6px;
      }

      .cls-1, .cls-2, .cls-3, .cls-4, .cls-5, .cls-6, .cls-7, .cls-8, .cls-9, .cls-10 {
        stroke-miterlimit: 10;
      }

      .cls-1, .cls-2, .cls-3, .cls-4, .cls-5, .cls-6, .cls-8, .cls-9, .cls-10 {
        stroke: #0d3125;
      }

      .cls-1, .cls-2, .cls-3, .cls-4, .cls-5, .cls-11, .cls-8, .cls-9 {
        fill: #0d3125;
      }

      .cls-2 {
        stroke-width: 15.31px;
      }

      .cls-3 {
        stroke-width: 6.77px;
      }

      .cls-4 {
        stroke-width: 13.73px;
      }

      .cls-5 {
        stroke-width: 12.51px;
      }

      .cls-12 {
        fill: #7c8718;
      }

      .cls-12, .cls-11, .cls-13, .cls-14, .cls-15 {
        stroke-width: 0px;
      }

      .cls-6 {
        fill: none;
      }

      .cls-6, .cls-10 {
        stroke-width: 11.51px;
      }

      .cls-7 {
        fill: #3a94b5;
        stroke: #3a94b5;
        stroke-width: 11.85px;
      }

      .cls-8 {
        stroke-width: 12.38px;
      }

      .cls-13 {
        fill: #f15a24;
      }

      .cls-9 {
        stroke-width: 8.46px;
      }

      .cls-14 {
        fill: #b3b764;
      }

      .cls-10 {
        fill: #3a91af;
      }

      .cls-15 {
        fill: #fff;
      }
    </style>
  </defs>
  <g id="Calque_1-2" data-name="Calque 1">
    <g>
      <path class="cls-10" d="M806.38,390.66c27.57-39.65,43.75-87.82,43.75-139.77,0-135.38-109.75-245.13-245.13-245.13s-245.13,109.75-245.13,245.13c0,51.96,16.18,100.12,43.75,139.77h402.76Z"/>
      <g>
        <polygon class="cls-12" points="433.8 210.95 528.52 209.95 607.65 84.06 696.08 209.95 796.86 210.95 606.71 22.87 433.8 210.95"/>
        <path class="cls-4" d="M796.38,215.16l-103.51-1.03-87.89-125.12-78.64,125.12-97.34,1.03L603.96,24.83l.7.69,191.72,189.64ZM604.03,27.47l-97.99,106.59-72.86,79.25,92.1-.97,79.61-126.66,88.97,126.66,98.05.97L604.03,27.47Z"/>
        <line class="cls-2" x1="509.05" y1="134.15" x2="520.56" y2="208.6"/>
        <line class="cls-2" x1="740.38" y1="158.84" x2="689.26" y2="214.17"/>
        <line class="cls-8" x1="673.24" y1="95.9" x2="656.47" y2="159.97"/>
        <line class="cls-1" x1="580.69" y1="128.02" x2="536.26" y2="90.27"/>
        <line class="cls-5" x1="623.61" y1="111.43" x2="626.8" y2="43.93"/>
      </g>
      <g>
        <polygon class="cls-14" points="429.85 264.45 524.56 263.45 603.69 137.56 692.12 263.45 792.9 264.45 602.76 76.37 429.85 264.45"/>
        <path class="cls-4" d="M797.02,273.27l-103.51-1.03-87.89-125.12-78.64,125.12-97.34,1.03,174.97-190.33.7.69,191.72,189.64ZM604.67,85.58l-97.99,106.59-72.86,79.25,92.1-.97,79.61-126.66,88.97,126.66,98.05.97-187.88-185.84Z"/>
        <line class="cls-2" x1="509.7" y1="192.26" x2="521.21" y2="266.71"/>
        <line class="cls-2" x1="741.03" y1="216.94" x2="689.91" y2="272.27"/>
        <line class="cls-8" x1="673.89" y1="154.01" x2="657.12" y2="218.08"/>
        <line class="cls-1" x1="581.33" y1="186.13" x2="536.9" y2="148.37"/>
        <line class="cls-5" x1="624.25" y1="169.54" x2="627.44" y2="102.04"/>
      </g>
      <rect class="cls-11" x="380.42" y="388.49" width="449.16" height="13.3"/>
      <polygon class="cls-15" points="746.32 394.33 474.69 394.33 474.69 281.82 533.08 280.85 605 162.47 685.39 280.85 746.32 281.82 746.32 394.33"/>
      <polygon class="cls-7" points="533.23 289.35 549.83 289.35 604.65 186.1 667.87 289.35 684.46 289.35 604.65 171.82 533.23 289.35"/>
      <path class="cls-6" d="M747.01,395.18h-273.32v-114.18l58.75-.98,72.37-119.1,80.88,119.1,61.32.98v114.18ZM475.38,393.48h269.94v-110.83l-60.53-.97-.25-.36-79.65-117.29-71.49,117.65h-.47s-57.56.97-57.56.97v110.83Z"/>
      <path class="cls-13" d="M607.58,300.82h1.17c19.79,0,35.87,16.07,35.87,35.87v56.8h-71.6v-58.09c0-19.08,15.49-34.57,34.57-34.57Z"/>
      <path class="cls-9" d="M645.62,394.33h-73.62v-59.36c0-19.53,15.89-35.42,35.42-35.42h1.49c20.24,0,36.71,16.47,36.71,36.71v58.06ZM573.69,392.64h70.23v-56.37c0-19.31-15.71-35.02-35.02-35.02h-1.49c-18.59,0-33.72,15.13-33.72,33.72v57.67Z"/>
      <circle class="cls-11" cx="591.45" cy="342.69" r="6.71"/>
      <path class="cls-11" d="M591.45,350.29c-4.19,0-7.6-3.41-7.6-7.6s3.41-7.6,7.6-7.6,7.6,3.41,7.6,7.6-3.41,7.6-7.6,7.6ZM591.45,336.88c-3.2,0-5.81,2.61-5.81,5.81s2.61,5.81,5.81,5.81,5.81-2.61,5.81-5.81-2.61-5.81-5.81-5.81Z"/>
      <circle class="cls-11" cx="626.32" cy="342.69" r="6.71"/>
      <path class="cls-11" d="M626.32,350.29c-4.19,0-7.6-3.41-7.6-7.6s3.41-7.6,7.6-7.6,7.6,3.41,7.6,7.6-3.41,7.6-7.6,7.6ZM626.32,336.88c-3.2,0-5.81,2.61-5.81,5.81s2.61,5.81,5.81,5.81,5.81-2.61,5.81-5.81-2.61-5.81-5.81-5.81Z"/>
      <circle class="cls-11" cx="591.45" cy="374.88" r="6.71"/>
      <path class="cls-11" d="M591.45,382.48c-4.19,0-7.6-3.41-7.6-7.6s3.41-7.6,7.6-7.6,7.6,3.41,7.6,7.6-3.41,7.6-7.6,7.6ZM591.45,369.07c-3.2,0-5.81,2.61-5.81,5.81s2.61,5.81,5.81,5.81,5.81-2.61,5.81-5.81-2.61-5.81-5.81-5.81Z"/>
      <circle class="cls-11" cx="626.32" cy="374.88" r="6.71"/>
      <path class="cls-11" d="M626.32,382.48c-4.19,0-7.6-3.41-7.6-7.6s3.41-7.6,7.6-7.6,7.6,3.41,7.6,7.6-3.41,7.6-7.6,7.6ZM626.32,369.07c-3.2,0-5.81,2.61-5.81,5.81s2.61,5.81,5.81,5.81,5.81-2.61,5.81-5.81-2.61-5.81-5.81-5.81Z"/>
      <rect class="cls-3" x="607.82" y="330.02" width="1.69" height="59.69" transform="translate(-4.04 6.92) rotate(-.65)"/>
      <polygon class="cls-13" points="632.5 261.99 616.69 273.19 607.59 286.89 598.64 272.52 582.69 261.99 597.97 251.12 607.59 237.09 617.36 251.12 632.5 261.99"/>
      <g>
        <path class="cls-15" d="M77.16,548.16h-41.97c-5.5,13.56-4.95,32.62-4.95,57.92H0v-24.56c0-26.39,6.78-52.6,19.24-75.69H.55v-30.97h106.85v131.23h-30.24v-57.92ZM54.25,505.82c-.73.92-3.48,5.31-6.41,11.36h29.32v-11.36h-22.91Z"/>
        <path class="cls-15" d="M194.45,606.08h-30.24v-100.25h-39.04v-30.97h106.85v30.97h-37.57v100.25Z"/>
        <path class="cls-15" d="M245.58,577.12c19.98-8.8,35.74-19.61,47.47-33.36-19.61-14.29-39.95-35.92-49.67-68.91h31.71c7.15,17.96,21.08,32.81,34.82,43.25,6.05-11.73,11.73-26.21,12.46-43.25h29.87c-1.65,56.45-51.68,119.13-106.67,133.06v-30.79Z"/>
        <path class="cls-15" d="M394.2,606.08h-30.24v-131.23h104.47c-12.1,50.22-37.76,83.57-74.23,104.28v26.94ZM394.02,542.3c12.65-9.53,23.83-22.54,31.71-36.47h-31.52l-.18,36.47Z"/>
        <path class="cls-15" d="M481.07,474.85h30.97v131.23h-30.97v-131.23Z"/>
        <path class="cls-15" d="M630.62,606.08h-31.16c-6.6-38.3-21.81-63.96-46.55-84.67v84.67h-30.06v-135.26c24.93,8.43,41.24,18.33,54.62,30.61l52.42-31.52v35.19l-31.34,19.61c15.95,21.81,26.94,47.65,32.07,81.37Z"/>
        <path class="cls-15" d="M724.63,548.16h-46.37v57.92h-30.06v-131.23h30.06v42.34h46.37v-42.34h30.24v131.23h-30.24v-57.92Z"/>
        <path class="cls-15" d="M772.28,520.67c0-25.29,19.79-45.82,43.8-45.82s43.62,20.53,43.62,45.82-19.61,46-43.62,46-43.8-20.71-43.8-46ZM775.39,574.92h81.19v31.16h-81.19v-31.16ZM801.6,520.67c0,8.25,6.6,15.03,14.48,15.03s14.11-6.78,14.11-15.03-6.23-14.85-14.11-14.85-14.48,6.6-14.48,14.85Z"/>
        <path class="cls-15" d="M871.79,488.6v-13.75h30.42v13.93c0,28.04,9.53,53.88,25.29,76.61,15.76-22.73,25.29-48.57,25.29-76.61v-13.93h30.42v13.75c0,40.51-18.69,90.17-55.72,118.95-37.02-28.77-55.71-78.44-55.71-118.95Z"/>
        <path class="cls-15" d="M1030.68,548.16c-17.41,0-35.01-14.85-35.01-37.02,0-24.01,17.41-36.29,35.01-36.29h72.39v30.97h-70.56c-3.67,0-6.6,1.28-6.6,5.31s2.38,6.05,6.6,6.05h56.08c6.6,0,12.46,2.57,12.46,11,0,6.05-1.83,11.73-3.67,15.76-17.41,38.49-61.76,58.83-101.35,62.86v-31.16c23.28-3.67,46.37-11,63.96-27.49h-29.32Z"/>
        <path class="cls-15" d="M1220,474.85v30.97h-70.74c1.65,4.03,3.3,7.7,5.13,11.36h64.33v30.97h-42.15c11.18,11.55,25.47,20.89,43.44,28.96v31.52c-61.03-20.89-100.98-69.64-107.77-133.79h107.77Z"/>
      </g>
    </g>
  </g>
</svg>