<?xml version="1.0" encoding="UTF-8"?>
<svg id="Calque_2" data-name="Calque 2" xmlns="http://www.w3.org/2000/svg" viewBox="0 0 525.99 443.93">
  <defs>
    <style>
      .cls-1 {
        stroke-width: 6.06px;
      }

      .cls-1, .cls-2, .cls-3, .cls-4, .cls-5, .cls-6, .cls-7, .cls-8, .cls-9, .cls-10 {
        stroke-miterlimit: 10;
      }

      .cls-1, .cls-2, .cls-3, .cls-5, .cls-11, .cls-7, .cls-8, .cls-9 {
        fill: #0d3125;
      }

      .cls-1, .cls-2, .cls-3, .cls-5, .cls-6, .cls-7, .cls-8, .cls-9, .cls-10 {
        stroke: #0d3125;
      }

      .cls-2 {
        stroke-width: 7.58px;
      }

      .cls-12 {
        fill: #7c8718;
      }

      .cls-12, .cls-11, .cls-13, .cls-14, .cls-15 {
        stroke-width: 0px;
      }

      .cls-3 {
        stroke-width: 10.39px;
      }

      .cls-4 {
        fill: #3a94b5;
        stroke: #3a94b5;
        stroke-width: 10.61px;
      }

      .cls-5 {
        stroke-width: 13.71px;
      }

      .cls-6 {
        fill: none;
      }

      .cls-6, .cls-10 {
        stroke-width: 10.31px;
      }

      .cls-7 {
        stroke-width: 12.29px;
      }

      .cls-13 {
        fill: #f15a24;
      }

      .cls-8 {
        stroke-width: 11.2px;
      }

      .cls-14 {
        fill: #b3b764;
      }

      .cls-9 {
        stroke-width: 11.09px;
      }

      .cls-15 {
        fill: #fff;
      }

      .cls-10 {
        fill: #3a91af;
      }
    </style>
  </defs>
  <g id="Calque_1-2" data-name="Calque 1">
    <path class="cls-10" d="M443.27,349.72c24.68-35.5,39.17-78.62,39.17-125.13,0-121.19-98.25-219.44-219.44-219.44S43.55,103.4,43.55,224.59c0,46.51,14.48,89.63,39.17,125.13h360.55Z"/>
    <g>
      <polygon class="cls-12" points="109.74 188.85 194.53 187.95 265.36 75.25 344.53 187.95 434.75 188.85 264.53 20.47 109.74 188.85"/>
      <path class="cls-7" d="M434.32,192.61l-92.67-.92-78.68-112.01-70.4,112.01-87.14.92L262.07,22.23l.62.62,171.63,169.76ZM262.12,24.59l-87.72,95.42-65.22,70.95,82.45-.87,71.27-113.39,79.65,113.39,87.78.87L262.12,24.59Z"/>
      <line class="cls-5" x1="177.1" y1="120.1" x2="187.41" y2="186.74"/>
      <line class="cls-5" x1="384.19" y1="142.19" x2="338.43" y2="191.73"/>
      <line class="cls-9" x1="324.09" y1="85.85" x2="309.07" y2="143.21"/>
      <line class="cls-3" x1="241.23" y1="114.61" x2="201.46" y2="80.81"/>
      <line class="cls-8" x1="279.65" y1="99.76" x2="282.51" y2="39.33"/>
    </g>
    <g>
      <polygon class="cls-14" points="106.2 236.74 190.99 235.85 261.82 123.15 340.99 235.85 431.21 236.74 260.99 68.36 106.2 236.74"/>
      <path class="cls-7" d="M434.9,244.63l-92.67-.92-78.68-112.01-70.4,112.01-87.14.92,156.64-170.38.62.62,171.63,169.76ZM262.7,76.61l-87.72,95.42-65.22,70.95,82.45-.87,71.27-113.39,79.65,113.39,87.78.87-168.19-166.37Z"/>
      <line class="cls-5" x1="177.68" y1="172.11" x2="187.98" y2="238.76"/>
      <line class="cls-5" x1="384.77" y1="194.21" x2="339.01" y2="243.74"/>
      <line class="cls-9" x1="324.67" y1="137.87" x2="309.65" y2="195.23"/>
      <line class="cls-3" x1="241.81" y1="166.62" x2="202.03" y2="132.83"/>
      <line class="cls-8" x1="280.23" y1="151.77" x2="283.09" y2="91.34"/>
    </g>
    <rect class="cls-11" x="61.95" y="347.78" width="402.09" height="11.9"/>
    <polygon class="cls-15" points="389.5 353.01 146.34 353.01 146.34 252.29 198.61 251.42 263 145.45 334.96 251.42 389.5 252.29 389.5 353.01"/>
    <polygon class="cls-4" points="198.75 259.03 213.61 259.03 262.68 166.6 319.28 259.03 334.13 259.03 262.68 153.82 198.75 259.03"/>
    <path class="cls-6" d="M390.12,353.77h-244.68v-102.22l52.6-.88,64.78-106.62,72.41,106.62,54.89.88v102.22ZM146.96,352.25h241.65v-99.21l-54.19-.87-.22-.33-71.3-105-63.99,105.32h-.42s-51.52.87-51.52.87v99.21Z"/>
    <path class="cls-13" d="M265.3,269.3h1.05c17.72,0,32.11,14.39,32.11,32.11v50.84h-64.1v-52.01c0-17.08,13.87-30.95,30.95-30.95Z"/>
    <path class="cls-2" d="M299.36,353.01h-65.9v-53.14c0-17.48,14.22-31.7,31.7-31.7h1.34c18.12,0,32.86,14.74,32.86,32.86v51.98ZM234.97,351.49h62.87v-50.46c0-17.29-14.06-31.35-31.35-31.35h-1.34c-16.65,0-30.19,13.54-30.19,30.19v51.62Z"/>
    <circle class="cls-11" cx="250.86" cy="306.78" r="6"/>
    <path class="cls-11" d="M250.86,313.59c-3.75,0-6.8-3.05-6.8-6.8s3.05-6.8,6.8-6.8,6.8,3.05,6.8,6.8-3.05,6.8-6.8,6.8ZM250.86,301.58c-2.87,0-5.2,2.33-5.2,5.2s2.33,5.2,5.2,5.2,5.2-2.33,5.2-5.2-2.33-5.2-5.2-5.2Z"/>
    <circle class="cls-11" cx="282.08" cy="306.78" r="6"/>
    <path class="cls-11" d="M282.08,313.59c-3.75,0-6.8-3.05-6.8-6.8s3.05-6.8,6.8-6.8,6.8,3.05,6.8,6.8-3.05,6.8-6.8,6.8ZM282.08,301.58c-2.87,0-5.2,2.33-5.2,5.2s2.33,5.2,5.2,5.2,5.2-2.33,5.2-5.2-2.33-5.2-5.2-5.2Z"/>
    <circle class="cls-11" cx="250.86" cy="335.6" r="6"/>
    <path class="cls-11" d="M250.86,342.4c-3.75,0-6.8-3.05-6.8-6.8s3.05-6.8,6.8-6.8,6.8,3.05,6.8,6.8-3.05,6.8-6.8,6.8ZM250.86,330.4c-2.87,0-5.2,2.33-5.2,5.2s2.33,5.2,5.2,5.2,5.2-2.33,5.2-5.2-2.33-5.2-5.2-5.2Z"/>
    <circle class="cls-11" cx="282.08" cy="335.6" r="6"/>
    <path class="cls-11" d="M282.08,342.4c-3.75,0-6.8-3.05-6.8-6.8s3.05-6.8,6.8-6.8,6.8,3.05,6.8,6.8-3.05,6.8-6.8,6.8ZM282.08,330.4c-2.87,0-5.2,2.33-5.2,5.2s2.33,5.2,5.2,5.2,5.2-2.33,5.2-5.2-2.33-5.2-5.2-5.2Z"/>
    <rect class="cls-1" x="265.52" y="295.43" width="1.52" height="53.44" transform="translate(-3.63 3.04) rotate(-.65)"/>
    <polygon class="cls-13" points="287.61 234.54 273.47 244.57 265.32 256.83 257.3 243.97 243.02 234.54 256.7 224.81 265.32 212.24 274.06 224.81 287.61 234.54"/>
    <g>
      <path class="cls-15" d="M33.27,417.85H15.17c-2.37,5.85-2.13,14.07-2.13,24.97H0v-10.59c0-11.38,2.92-22.68,8.3-32.63H.24v-13.35h46.07v56.58h-13.04v-24.97ZM23.39,399.6c-.32.4-1.5,2.29-2.77,4.9h12.64v-4.9h-9.88Z"/>
      <path class="cls-15" d="M83.83,442.82h-13.04v-43.22h-16.83v-13.35h46.07v13.35h-16.2v43.22Z"/>
      <path class="cls-15" d="M105.88,430.34c8.61-3.79,15.41-8.45,20.47-14.38-8.45-6.16-17.23-15.49-21.41-29.71h13.67c3.08,7.74,9.09,14.14,15.01,18.65,2.61-5.06,5.06-11.3,5.37-18.65h12.88c-.71,24.34-22.28,51.36-45.99,57.37v-13.27Z"/>
      <path class="cls-15" d="M169.96,442.82h-13.04v-56.58h45.04c-5.21,21.65-16.28,36.03-32,44.96v11.62ZM169.88,415.32c5.45-4.11,10.27-9.72,13.67-15.72h-13.59l-.08,15.72Z"/>
      <path class="cls-15" d="M207.41,386.24h13.35v56.58h-13.35v-56.58Z"/>
      <path class="cls-15" d="M271.89,442.82h-13.43c-2.84-16.51-9.4-27.58-20.07-36.51v36.51h-12.96v-58.32c10.75,3.63,17.78,7.9,23.55,13.2l22.6-13.59v15.17l-13.51,8.45c6.87,9.4,11.62,20.54,13.83,35.08Z"/>
      <path class="cls-15" d="M312.42,417.85h-19.99v24.97h-12.96v-56.58h12.96v18.25h19.99v-18.25h13.04v56.58h-13.04v-24.97Z"/>
      <path class="cls-15" d="M332.96,406c0-10.9,8.53-19.75,18.89-19.75s18.81,8.85,18.81,19.75-8.45,19.83-18.81,19.83-18.89-8.93-18.89-19.83ZM334.3,429.39h35v13.43h-35v-13.43ZM345.6,406c0,3.56,2.84,6.48,6.24,6.48s6.08-2.92,6.08-6.48-2.69-6.4-6.08-6.4-6.24,2.84-6.24,6.4Z"/>
      <path class="cls-15" d="M375.86,392.17v-5.93h13.12v6.01c0,12.09,4.11,23.23,10.9,33.03,6.8-9.8,10.9-20.94,10.9-33.03v-6.01h13.12v5.93c0,17.46-8.06,38.88-24.02,51.28-15.96-12.41-24.02-33.82-24.02-51.28Z"/>
      <path class="cls-15" d="M444.37,417.85c-7.51,0-15.09-6.4-15.09-15.96,0-10.35,7.51-15.65,15.09-15.65h31.21v13.35h-30.42c-1.58,0-2.84.55-2.84,2.29s1.03,2.61,2.84,2.61h24.18c2.84,0,5.37,1.11,5.37,4.74,0,2.61-.79,5.06-1.58,6.8-7.51,16.59-26.63,25.36-43.7,27.1v-13.43c10.04-1.58,19.99-4.74,27.58-11.85h-12.64Z"/>
      <path class="cls-15" d="M525.99,386.24v13.35h-30.5c.71,1.74,1.42,3.32,2.21,4.9h27.74v13.35h-18.17c4.82,4.98,10.98,9.01,18.73,12.48v13.59c-26.31-9.01-43.54-30.03-46.46-57.68h46.46Z"/>
    </g>
  </g>
</svg>